<?xml version="1.0" encoding="UTF-8" standalone="no"?>
<!-- Created with Inkscape (http://www.inkscape.org/) -->

<svg
   width="64.75mm"
   height="25.40049mm"
   viewBox="0 0 64.75 25.40049"
   version="1.1"
   id="svg1"
   xml:space="preserve"
   xmlns="http://www.w3.org/2000/svg"
   xmlns:svg="http://www.w3.org/2000/svg"><defs
     id="defs1" /><g
     id="layer1"><path
       id="path1"
       style="fill:#000000;stroke-width:0.264583"
       d="m 5,23.9 c 0,0 12.509319,1.53181 13.75,1.5 1.240682,-0.03181 2.010424,-0.954021 2.75,-1.75 1.197861,-1.289214 1.863753,-3.059384 2.5,-4.65 0.636247,-1.590613 1.945907,-1 3,-1 4.728099,0 7.516585,0.06362 8.216455,0 C 35.916329,17.93638 36,17.210832 36,17.210832 V 16 c 0,0 -0.05449,-0.342911 1.379631,0.5 C 37.706052,16.691856 61,16.5 61,16.5 l 3.75,-3.774682 V 11.275 L 62.225142,9 C 62.225142,9 28.208868,8.904563 27,9 25.791131,9.095437 24.318123,8.9543703 24,8 23.681877,7.0456299 21.945373,3.3088047 21.5,1.75 21.054628,0.19119534 18.75,0 18.75,0 18.75,0 6.8133033,1.309126 5,1.5 0.73414321,1.9490375 2.7047246,6.8205555 1,7 0.39556555,7.0636246 0.06356201,8 0.06356201,8 0.06356201,8 0,17.27275 0,17.4 c 0.12724935,-0.03181 -0.10401608,0.482492 1,1 2.0870493,0.978307 -0.58628096,4.631367 4,5.5 M 6.25,8.25 c 0,0 1.3454371,0.1275718 1.25,1.75 -0.095437,1.622429 0,5.25 0,5.25 0,0 0.00706,2.08226 -1.25,2 C 4.7230076,17.122751 4.7380366,17.086959 3.75,17 2.6411675,16.682217 2.6,16.545308 2.6,15.75 v -6 c 0,0 0.132008,-1.0909383 1.15,-1.25 1.0179949,-0.1590617 2.5,-0.25 2.5,-0.25 z" /></g></svg>
